<mxfile host="app.diagrams.net" agent="Mozilla/5.0 (Windows NT 10.0; Win64; x64) AppleWebKit/537.36 (KHTML, like Gecko) Chrome/131.0.0.0 Safari/537.36" version="25.0.3">
  <diagram name="Page-1" id="O5Yeq7JF-oprdVF3xFMV">
    <mxGraphModel dx="1674" dy="738" grid="1" gridSize="10" guides="1" tooltips="1" connect="1" arrows="1" fold="1" page="1" pageScale="1" pageWidth="850" pageHeight="1100" math="0" shadow="0">
      <root>
        <mxCell id="0" />
        <mxCell id="1" parent="0" />
        <mxCell id="nvfyEzK4BFwzWhvPfm2Y-1" value="OnTime service" style="whiteSpace=wrap;html=1;aspect=fixed;" parent="1" vertex="1">
          <mxGeometry x="440" y="60" width="80" height="80" as="geometry" />
        </mxCell>
        <mxCell id="nvfyEzK4BFwzWhvPfm2Y-2" value="OpenAI API" style="whiteSpace=wrap;html=1;aspect=fixed;" parent="1" vertex="1">
          <mxGeometry x="730" y="60" width="80" height="80" as="geometry" />
        </mxCell>
        <mxCell id="nvfyEzK4BFwzWhvPfm2Y-3" value="Google Calendar API" style="whiteSpace=wrap;html=1;aspect=fixed;" parent="1" vertex="1">
          <mxGeometry x="440" y="220" width="80" height="80" as="geometry" />
        </mxCell>
        <mxCell id="nvfyEzK4BFwzWhvPfm2Y-4" value="OnTime&lt;div&gt;Client (CLI)&lt;/div&gt;" style="whiteSpace=wrap;html=1;aspect=fixed;" parent="1" vertex="1">
          <mxGeometry x="264" y="70" width="60" height="60" as="geometry" />
        </mxCell>
        <mxCell id="nvfyEzK4BFwzWhvPfm2Y-5" value="Actor" style="shape=umlActor;verticalLabelPosition=bottom;verticalAlign=top;html=1;outlineConnect=0;" parent="1" vertex="1">
          <mxGeometry x="120" y="70" width="30" height="60" as="geometry" />
        </mxCell>
        <mxCell id="nvfyEzK4BFwzWhvPfm2Y-6" value="" style="endArrow=classic;html=1;rounded=0;entryX=0.103;entryY=0.488;entryDx=0;entryDy=0;entryPerimeter=0;" parent="1" source="nvfyEzK4BFwzWhvPfm2Y-5" target="nvfyEzK4BFwzWhvPfm2Y-4" edge="1">
          <mxGeometry width="50" height="50" relative="1" as="geometry">
            <mxPoint x="520" y="150" as="sourcePoint" />
            <mxPoint x="570" y="100" as="targetPoint" />
          </mxGeometry>
        </mxCell>
        <mxCell id="nvfyEzK4BFwzWhvPfm2Y-7" value="user prompt" style="edgeLabel;html=1;align=center;verticalAlign=middle;resizable=0;points=[];" parent="nvfyEzK4BFwzWhvPfm2Y-6" vertex="1" connectable="0">
          <mxGeometry x="0.061" y="-3" relative="1" as="geometry">
            <mxPoint as="offset" />
          </mxGeometry>
        </mxCell>
        <mxCell id="nvfyEzK4BFwzWhvPfm2Y-8" value="" style="endArrow=classic;html=1;rounded=0;" parent="1" source="nvfyEzK4BFwzWhvPfm2Y-4" target="nvfyEzK4BFwzWhvPfm2Y-1" edge="1">
          <mxGeometry width="50" height="50" relative="1" as="geometry">
            <mxPoint x="190" y="110" as="sourcePoint" />
            <mxPoint x="291" y="109" as="targetPoint" />
          </mxGeometry>
        </mxCell>
        <mxCell id="nvfyEzK4BFwzWhvPfm2Y-9" value="user prompt" style="edgeLabel;html=1;align=center;verticalAlign=middle;resizable=0;points=[];" parent="nvfyEzK4BFwzWhvPfm2Y-8" vertex="1" connectable="0">
          <mxGeometry x="0.061" y="-3" relative="1" as="geometry">
            <mxPoint as="offset" />
          </mxGeometry>
        </mxCell>
        <mxCell id="nvfyEzK4BFwzWhvPfm2Y-10" value="" style="endArrow=classic;html=1;rounded=0;exitX=1;exitY=0.155;exitDx=0;exitDy=0;exitPerimeter=0;entryX=0;entryY=0.172;entryDx=0;entryDy=0;entryPerimeter=0;" parent="1" source="nvfyEzK4BFwzWhvPfm2Y-1" target="nvfyEzK4BFwzWhvPfm2Y-2" edge="1">
          <mxGeometry width="50" height="50" relative="1" as="geometry">
            <mxPoint x="345" y="110" as="sourcePoint" />
            <mxPoint x="450" y="110" as="targetPoint" />
          </mxGeometry>
        </mxCell>
        <mxCell id="nvfyEzK4BFwzWhvPfm2Y-11" value="(1) NPL prompt" style="edgeLabel;html=1;align=center;verticalAlign=middle;resizable=0;points=[];" parent="nvfyEzK4BFwzWhvPfm2Y-10" vertex="1" connectable="0">
          <mxGeometry x="0.061" y="-3" relative="1" as="geometry">
            <mxPoint as="offset" />
          </mxGeometry>
        </mxCell>
        <mxCell id="nvfyEzK4BFwzWhvPfm2Y-12" value="" style="endArrow=classic;html=1;rounded=0;dashed=1;exitX=0.008;exitY=0.388;exitDx=0;exitDy=0;exitPerimeter=0;" parent="1" source="nvfyEzK4BFwzWhvPfm2Y-2" edge="1">
          <mxGeometry width="50" height="50" relative="1" as="geometry">
            <mxPoint x="719.9999999999999" y="19.99999999999997" as="sourcePoint" />
            <mxPoint x="514" y="94" as="targetPoint" />
          </mxGeometry>
        </mxCell>
        <mxCell id="nvfyEzK4BFwzWhvPfm2Y-13" value="NPL response" style="edgeLabel;html=1;align=center;verticalAlign=middle;resizable=0;points=[];" parent="nvfyEzK4BFwzWhvPfm2Y-12" vertex="1" connectable="0">
          <mxGeometry x="0.061" y="-3" relative="1" as="geometry">
            <mxPoint as="offset" />
          </mxGeometry>
        </mxCell>
        <mxCell id="nvfyEzK4BFwzWhvPfm2Y-17" value="" style="endArrow=classic;html=1;rounded=0;exitX=0.25;exitY=1;exitDx=0;exitDy=0;entryX=0.25;entryY=0;entryDx=0;entryDy=0;" parent="1" source="nvfyEzK4BFwzWhvPfm2Y-1" target="nvfyEzK4BFwzWhvPfm2Y-3" edge="1">
          <mxGeometry width="50" height="50" relative="1" as="geometry">
            <mxPoint x="410" y="302" as="sourcePoint" />
            <mxPoint x="620" y="304" as="targetPoint" />
          </mxGeometry>
        </mxCell>
        <mxCell id="nvfyEzK4BFwzWhvPfm2Y-18" value="(2) sched&lt;div&gt;query&lt;/div&gt;" style="edgeLabel;html=1;align=center;verticalAlign=middle;resizable=0;points=[];" parent="nvfyEzK4BFwzWhvPfm2Y-17" vertex="1" connectable="0">
          <mxGeometry x="0.061" y="-3" relative="1" as="geometry">
            <mxPoint as="offset" />
          </mxGeometry>
        </mxCell>
        <mxCell id="nvfyEzK4BFwzWhvPfm2Y-20" value="" style="endArrow=classic;html=1;rounded=0;exitX=0.81;exitY=0.008;exitDx=0;exitDy=0;entryX=0.819;entryY=0.931;entryDx=0;entryDy=0;entryPerimeter=0;exitPerimeter=0;dashed=1;" parent="1" source="nvfyEzK4BFwzWhvPfm2Y-3" target="nvfyEzK4BFwzWhvPfm2Y-1" edge="1">
          <mxGeometry width="50" height="50" relative="1" as="geometry">
            <mxPoint x="350" y="370" as="sourcePoint" />
            <mxPoint x="350" y="450" as="targetPoint" />
          </mxGeometry>
        </mxCell>
        <mxCell id="nvfyEzK4BFwzWhvPfm2Y-21" value="sched&lt;div&gt;response&lt;/div&gt;" style="edgeLabel;html=1;align=center;verticalAlign=middle;resizable=0;points=[];" parent="nvfyEzK4BFwzWhvPfm2Y-20" vertex="1" connectable="0">
          <mxGeometry x="0.061" y="-3" relative="1" as="geometry">
            <mxPoint as="offset" />
          </mxGeometry>
        </mxCell>
        <mxCell id="nvfyEzK4BFwzWhvPfm2Y-25" value="" style="endArrow=classic;html=1;rounded=0;exitX=1;exitY=0.612;exitDx=0;exitDy=0;exitPerimeter=0;entryX=0.021;entryY=0.603;entryDx=0;entryDy=0;entryPerimeter=0;" parent="1" source="nvfyEzK4BFwzWhvPfm2Y-1" target="nvfyEzK4BFwzWhvPfm2Y-2" edge="1">
          <mxGeometry width="50" height="50" relative="1" as="geometry">
            <mxPoint x="530" y="82" as="sourcePoint" />
            <mxPoint x="740" y="84" as="targetPoint" />
          </mxGeometry>
        </mxCell>
        <mxCell id="nvfyEzK4BFwzWhvPfm2Y-26" value="(3) resolve prompt" style="edgeLabel;html=1;align=center;verticalAlign=middle;resizable=0;points=[];" parent="nvfyEzK4BFwzWhvPfm2Y-25" vertex="1" connectable="0">
          <mxGeometry x="0.061" y="-3" relative="1" as="geometry">
            <mxPoint as="offset" />
          </mxGeometry>
        </mxCell>
        <mxCell id="nvfyEzK4BFwzWhvPfm2Y-27" value="" style="endArrow=classic;html=1;rounded=0;dashed=1;exitX=0.021;exitY=0.853;exitDx=0;exitDy=0;exitPerimeter=0;entryX=0.965;entryY=0.862;entryDx=0;entryDy=0;entryPerimeter=0;" parent="1" source="nvfyEzK4BFwzWhvPfm2Y-2" target="nvfyEzK4BFwzWhvPfm2Y-1" edge="1">
          <mxGeometry width="50" height="50" relative="1" as="geometry">
            <mxPoint x="741" y="101" as="sourcePoint" />
            <mxPoint x="524" y="104" as="targetPoint" />
          </mxGeometry>
        </mxCell>
        <mxCell id="nvfyEzK4BFwzWhvPfm2Y-28" value="resolve response" style="edgeLabel;html=1;align=center;verticalAlign=middle;resizable=0;points=[];" parent="nvfyEzK4BFwzWhvPfm2Y-27" vertex="1" connectable="0">
          <mxGeometry x="0.061" y="-3" relative="1" as="geometry">
            <mxPoint as="offset" />
          </mxGeometry>
        </mxCell>
        <mxCell id="nvfyEzK4BFwzWhvPfm2Y-29" value="" style="endArrow=classic;html=1;rounded=0;dashed=1;exitX=0;exitY=0.75;exitDx=0;exitDy=0;entryX=0.956;entryY=0.856;entryDx=0;entryDy=0;entryPerimeter=0;" parent="1" source="nvfyEzK4BFwzWhvPfm2Y-1" target="nvfyEzK4BFwzWhvPfm2Y-4" edge="1">
          <mxGeometry width="50" height="50" relative="1" as="geometry">
            <mxPoint x="742" y="138" as="sourcePoint" />
            <mxPoint x="527" y="139" as="targetPoint" />
          </mxGeometry>
        </mxCell>
        <mxCell id="nvfyEzK4BFwzWhvPfm2Y-30" value="resolve response" style="edgeLabel;html=1;align=center;verticalAlign=middle;resizable=0;points=[];" parent="nvfyEzK4BFwzWhvPfm2Y-29" vertex="1" connectable="0">
          <mxGeometry x="0.061" y="-3" relative="1" as="geometry">
            <mxPoint as="offset" />
          </mxGeometry>
        </mxCell>
        <mxCell id="nvfyEzK4BFwzWhvPfm2Y-32" value="" style="endArrow=classic;html=1;rounded=0;dashed=1;exitX=-0.037;exitY=0.856;exitDx=0;exitDy=0;entryX=1;entryY=1;entryDx=0;entryDy=0;entryPerimeter=0;exitPerimeter=0;" parent="1" source="nvfyEzK4BFwzWhvPfm2Y-4" target="nvfyEzK4BFwzWhvPfm2Y-5" edge="1">
          <mxGeometry width="50" height="50" relative="1" as="geometry">
            <mxPoint x="450" y="130" as="sourcePoint" />
            <mxPoint x="323" y="131" as="targetPoint" />
          </mxGeometry>
        </mxCell>
        <mxCell id="nvfyEzK4BFwzWhvPfm2Y-33" value="resolve response" style="edgeLabel;html=1;align=center;verticalAlign=middle;resizable=0;points=[];" parent="nvfyEzK4BFwzWhvPfm2Y-32" vertex="1" connectable="0">
          <mxGeometry x="0.061" y="-3" relative="1" as="geometry">
            <mxPoint as="offset" />
          </mxGeometry>
        </mxCell>
        <mxCell id="nvfyEzK4BFwzWhvPfm2Y-73" value="&lt;font color=&quot;#ffffff&quot;&gt;OPEN AI API&lt;/font&gt;" style="rounded=0;whiteSpace=wrap;html=1;fontStyle=1;fillColor=#000066;" parent="1" vertex="1">
          <mxGeometry x="1230" y="410" width="60" height="710" as="geometry" />
        </mxCell>
        <mxCell id="nvfyEzK4BFwzWhvPfm2Y-75" value="&lt;font color=&quot;#ffffff&quot;&gt;GOOGLE CALENDAR&lt;/font&gt;&lt;div&gt;&lt;font color=&quot;#ffffff&quot;&gt;API&lt;/font&gt;&lt;/div&gt;" style="rounded=0;whiteSpace=wrap;html=1;fontStyle=1;fillColor=#003333;" parent="1" vertex="1">
          <mxGeometry x="1140" y="585" width="80" height="130" as="geometry" />
        </mxCell>
        <mxCell id="nvfyEzK4BFwzWhvPfm2Y-78" value="" style="endArrow=classic;html=1;rounded=0;exitX=0.074;exitY=0.121;exitDx=0;exitDy=0;entryX=1;entryY=0.5;entryDx=0;entryDy=0;exitPerimeter=0;strokeColor=#0000FF;" parent="1" source="nvfyEzK4BFwzWhvPfm2Y-73" target="nvfyEzK4BFwzWhvPfm2Y-47" edge="1">
          <mxGeometry width="50" height="50" relative="1" as="geometry">
            <mxPoint x="10" y="715" as="sourcePoint" />
            <mxPoint x="-101" y="716" as="targetPoint" />
          </mxGeometry>
        </mxCell>
        <mxCell id="nvfyEzK4BFwzWhvPfm2Y-79" value="&lt;span style=&quot;font-size: 12px; text-align: left; text-wrap-mode: wrap; background-color: rgb(251, 251, 251);&quot;&gt;intention response&lt;/span&gt;" style="edgeLabel;html=1;align=center;verticalAlign=middle;resizable=0;points=[];" parent="nvfyEzK4BFwzWhvPfm2Y-78" vertex="1" connectable="0">
          <mxGeometry x="-0.1946" y="4" relative="1" as="geometry">
            <mxPoint as="offset" />
          </mxGeometry>
        </mxCell>
        <mxCell id="nvfyEzK4BFwzWhvPfm2Y-82" value="" style="endArrow=classic;html=1;rounded=0;entryX=1;entryY=0.5;entryDx=0;entryDy=0;strokeColor=#003333;exitX=0.025;exitY=0.591;exitDx=0;exitDy=0;exitPerimeter=0;" parent="1" source="nvfyEzK4BFwzWhvPfm2Y-75" target="nvfyEzK4BFwzWhvPfm2Y-52" edge="1">
          <mxGeometry width="50" height="50" relative="1" as="geometry">
            <mxPoint x="705" y="580" as="sourcePoint" />
            <mxPoint x="480" y="585" as="targetPoint" />
          </mxGeometry>
        </mxCell>
        <mxCell id="nvfyEzK4BFwzWhvPfm2Y-83" value="&lt;div style=&quot;text-align: left;&quot;&gt;&lt;span style=&quot;font-size: 12px; text-wrap-mode: wrap; background-color: rgb(251, 251, 251);&quot;&gt;agenda dump&lt;/span&gt;&lt;/div&gt;" style="edgeLabel;html=1;align=center;verticalAlign=middle;resizable=0;points=[];" parent="nvfyEzK4BFwzWhvPfm2Y-82" vertex="1" connectable="0">
          <mxGeometry x="-0.1946" y="4" relative="1" as="geometry">
            <mxPoint as="offset" />
          </mxGeometry>
        </mxCell>
        <mxCell id="nvfyEzK4BFwzWhvPfm2Y-86" value="" style="endArrow=classic;html=1;rounded=0;exitX=-0.029;exitY=0.655;exitDx=0;exitDy=0;entryX=1;entryY=0.5;entryDx=0;entryDy=0;exitPerimeter=0;strokeColor=#0000FF;" parent="1" source="nvfyEzK4BFwzWhvPfm2Y-73" target="nvfyEzK4BFwzWhvPfm2Y-59" edge="1">
          <mxGeometry width="50" height="50" relative="1" as="geometry">
            <mxPoint x="714" y="577" as="sourcePoint" />
            <mxPoint x="480" y="585" as="targetPoint" />
          </mxGeometry>
        </mxCell>
        <mxCell id="nvfyEzK4BFwzWhvPfm2Y-87" value="&lt;span style=&quot;font-size: 12px; text-align: left; text-wrap-mode: wrap; background-color: rgb(251, 251, 251);&quot;&gt;availability response&lt;/span&gt;" style="edgeLabel;html=1;align=center;verticalAlign=middle;resizable=0;points=[];" parent="nvfyEzK4BFwzWhvPfm2Y-86" vertex="1" connectable="0">
          <mxGeometry x="-0.1946" y="4" relative="1" as="geometry">
            <mxPoint as="offset" />
          </mxGeometry>
        </mxCell>
        <mxCell id="nvfyEzK4BFwzWhvPfm2Y-90" value="" style="endArrow=classic;html=1;rounded=0;exitX=0.017;exitY=0.915;exitDx=0;exitDy=0;entryX=1;entryY=0.5;entryDx=0;entryDy=0;exitPerimeter=0;strokeColor=#0000FF;" parent="1" source="nvfyEzK4BFwzWhvPfm2Y-73" target="nvfyEzK4BFwzWhvPfm2Y-63" edge="1">
          <mxGeometry width="50" height="50" relative="1" as="geometry">
            <mxPoint x="708" y="785" as="sourcePoint" />
            <mxPoint x="560" y="785" as="targetPoint" />
          </mxGeometry>
        </mxCell>
        <mxCell id="nvfyEzK4BFwzWhvPfm2Y-91" value="&lt;span style=&quot;font-size: 12px; text-align: left; text-wrap-mode: wrap; background-color: rgb(251, 251, 251);&quot;&gt;slots response&lt;/span&gt;" style="edgeLabel;html=1;align=center;verticalAlign=middle;resizable=0;points=[];" parent="nvfyEzK4BFwzWhvPfm2Y-90" vertex="1" connectable="0">
          <mxGeometry x="-0.1946" y="4" relative="1" as="geometry">
            <mxPoint as="offset" />
          </mxGeometry>
        </mxCell>
        <mxCell id="nvfyEzK4BFwzWhvPfm2Y-109" value="OnTimeService" style="swimlane;startSize=50;" parent="1" vertex="1">
          <mxGeometry x="80" y="330" width="1020" height="860" as="geometry" />
        </mxCell>
        <mxCell id="nvfyEzK4BFwzWhvPfm2Y-34" value="REST Controller" style="rounded=0;whiteSpace=wrap;html=1;" parent="nvfyEzK4BFwzWhvPfm2Y-109" vertex="1">
          <mxGeometry x="161.38" y="265" width="60" height="230" as="geometry" />
        </mxCell>
        <mxCell id="nvfyEzK4BFwzWhvPfm2Y-40" value="" style="endArrow=classic;html=1;rounded=0;entryX=-0.047;entryY=0.363;entryDx=0;entryDy=0;entryPerimeter=0;" parent="nvfyEzK4BFwzWhvPfm2Y-109" target="nvfyEzK4BFwzWhvPfm2Y-34" edge="1">
          <mxGeometry width="50" height="50" relative="1" as="geometry">
            <mxPoint x="61.379999999999995" y="350" as="sourcePoint" />
            <mxPoint x="193.38" y="344.65999999999985" as="targetPoint" />
          </mxGeometry>
        </mxCell>
        <mxCell id="nvfyEzK4BFwzWhvPfm2Y-41" value="POST&lt;div&gt;/ontime/prompt&lt;/div&gt;" style="edgeLabel;html=1;align=center;verticalAlign=middle;resizable=0;points=[];" parent="nvfyEzK4BFwzWhvPfm2Y-40" vertex="1" connectable="0">
          <mxGeometry x="0.061" y="-3" relative="1" as="geometry">
            <mxPoint as="offset" />
          </mxGeometry>
        </mxCell>
        <mxCell id="nvfyEzK4BFwzWhvPfm2Y-44" value="QueryResolver" style="swimlane;startSize=20;fontStyle=1;fillColor=#009900;" parent="nvfyEzK4BFwzWhvPfm2Y-109" vertex="1">
          <mxGeometry x="311.38" y="310" width="278.62" height="110" as="geometry">
            <mxRectangle x="620" y="600" width="50" height="40" as="alternateBounds" />
          </mxGeometry>
        </mxCell>
        <mxCell id="nvfyEzK4BFwzWhvPfm2Y-45" value="&lt;span style=&quot;background-color: rgb(255, 255, 255); font-family: &amp;quot;Courier New&amp;quot;; font-size: 9.8pt;&quot;&gt;resolve_user_query&lt;/span&gt;(userQuery)" style="rounded=0;whiteSpace=wrap;html=1;" parent="nvfyEzK4BFwzWhvPfm2Y-44" vertex="1">
          <mxGeometry x="20" y="40" width="240" height="30" as="geometry" />
        </mxCell>
        <mxCell id="nvfyEzK4BFwzWhvPfm2Y-46" value="(I) NLPResolverInterface" style="swimlane;startSize=20;fontStyle=1;fillColor=#009900;" parent="nvfyEzK4BFwzWhvPfm2Y-109" vertex="1">
          <mxGeometry x="621.38" y="90" width="200" height="90" as="geometry">
            <mxRectangle x="620" y="600" width="50" height="40" as="alternateBounds" />
          </mxGeometry>
        </mxCell>
        <mxCell id="nvfyEzK4BFwzWhvPfm2Y-47" value="resolveIntention(userQuery)" style="rounded=0;whiteSpace=wrap;html=1;" parent="nvfyEzK4BFwzWhvPfm2Y-46" vertex="1">
          <mxGeometry x="20" y="40" width="160" height="30" as="geometry" />
        </mxCell>
        <mxCell id="nvfyEzK4BFwzWhvPfm2Y-48" value="" style="endArrow=classic;html=1;rounded=0;exitX=0;exitY=0.5;exitDx=0;exitDy=0;entryX=0.92;entryY=-0.024;entryDx=0;entryDy=0;entryPerimeter=0;" parent="nvfyEzK4BFwzWhvPfm2Y-109" source="nvfyEzK4BFwzWhvPfm2Y-47" target="nvfyEzK4BFwzWhvPfm2Y-45" edge="1">
          <mxGeometry width="50" height="50" relative="1" as="geometry">
            <mxPoint x="601.38" y="380" as="sourcePoint" />
            <mxPoint x="727.38" y="430" as="targetPoint" />
          </mxGeometry>
        </mxCell>
        <mxCell id="nvfyEzK4BFwzWhvPfm2Y-49" value="&lt;b&gt;&lt;font color=&quot;#4c0099&quot;&gt;&lt;br&gt;(1) IntentionDTO&lt;/font&gt;&lt;/b&gt;" style="edgeLabel;html=1;align=center;verticalAlign=middle;resizable=0;points=[];" parent="nvfyEzK4BFwzWhvPfm2Y-48" vertex="1" connectable="0">
          <mxGeometry x="0.061" y="-3" relative="1" as="geometry">
            <mxPoint x="4" y="-23" as="offset" />
          </mxGeometry>
        </mxCell>
        <mxCell id="nvfyEzK4BFwzWhvPfm2Y-50" value="&lt;b&gt;&lt;font color=&quot;#4c0099&quot;&gt;IntentionDTO&lt;/font&gt;&lt;/b&gt;&lt;div style=&quot;text-align: left;&quot;&gt;- intention&lt;/div&gt;&lt;div style=&quot;text-align: left;&quot;&gt;- date&lt;/div&gt;&lt;div style=&quot;text-align: left;&quot;&gt;- timeRange&lt;/div&gt;&lt;div style=&quot;text-align: left;&quot;&gt;- durationHrs&lt;/div&gt;" style="rounded=0;whiteSpace=wrap;html=1;" parent="nvfyEzK4BFwzWhvPfm2Y-109" vertex="1">
          <mxGeometry x="271.38" y="538.5" width="100" height="80" as="geometry" />
        </mxCell>
        <mxCell id="nvfyEzK4BFwzWhvPfm2Y-51" value="(I) ScheduleProvider" style="swimlane;startSize=20;fontStyle=1;fillColor=#009900;" parent="nvfyEzK4BFwzWhvPfm2Y-109" vertex="1">
          <mxGeometry x="621.38" y="265" width="200" height="90" as="geometry">
            <mxRectangle x="620" y="600" width="50" height="40" as="alternateBounds" />
          </mxGeometry>
        </mxCell>
        <mxCell id="nvfyEzK4BFwzWhvPfm2Y-52" value="getBusySlotsForDate(date)" style="rounded=0;whiteSpace=wrap;html=1;" parent="nvfyEzK4BFwzWhvPfm2Y-51" vertex="1">
          <mxGeometry x="20" y="40" width="160" height="30" as="geometry" />
        </mxCell>
        <mxCell id="nvfyEzK4BFwzWhvPfm2Y-54" value="" style="endArrow=classic;html=1;rounded=0;exitX=0.039;exitY=0.516;exitDx=0;exitDy=0;exitPerimeter=0;entryX=1;entryY=0.25;entryDx=0;entryDy=0;" parent="nvfyEzK4BFwzWhvPfm2Y-109" source="nvfyEzK4BFwzWhvPfm2Y-52" target="nvfyEzK4BFwzWhvPfm2Y-45" edge="1">
          <mxGeometry width="50" height="50" relative="1" as="geometry">
            <mxPoint x="121.38" y="374.65999999999985" as="sourcePoint" />
            <mxPoint x="237.38" y="374.65999999999985" as="targetPoint" />
          </mxGeometry>
        </mxCell>
        <mxCell id="nvfyEzK4BFwzWhvPfm2Y-57" value="&lt;b style=&quot;font-size: 12px; text-align: left; text-wrap-mode: wrap; background-color: rgb(251, 251, 251);&quot;&gt;&lt;font color=&quot;#0000ff&quot;&gt;(2) SlotsDTO&lt;/font&gt;&lt;/b&gt;" style="edgeLabel;html=1;align=center;verticalAlign=middle;resizable=0;points=[];" parent="nvfyEzK4BFwzWhvPfm2Y-54" vertex="1" connectable="0">
          <mxGeometry x="-0.1946" y="4" relative="1" as="geometry">
            <mxPoint as="offset" />
          </mxGeometry>
        </mxCell>
        <mxCell id="nvfyEzK4BFwzWhvPfm2Y-56" value="&lt;div style=&quot;&quot;&gt;&lt;b style=&quot;&quot;&gt;&lt;font color=&quot;#0000ff&quot;&gt;SlotsDTO&lt;/font&gt;&lt;/b&gt;&lt;/div&gt;&lt;div style=&quot;&quot;&gt;- date&lt;/div&gt;&lt;div style=&quot;&quot;&gt;- slots[]&lt;br&gt;&lt;/div&gt;&lt;div style=&quot;&quot;&gt;&lt;i&gt;(each slot is a pair if times)&lt;/i&gt;&lt;/div&gt;" style="rounded=0;whiteSpace=wrap;html=1;align=left;" parent="nvfyEzK4BFwzWhvPfm2Y-109" vertex="1">
          <mxGeometry x="161.38" y="538.5" width="100" height="80" as="geometry" />
        </mxCell>
        <mxCell id="nvfyEzK4BFwzWhvPfm2Y-58" value="(I) AvailabiltyReslover" style="swimlane;startSize=20;fontStyle=1;fillColor=#009900;" parent="nvfyEzK4BFwzWhvPfm2Y-109" vertex="1">
          <mxGeometry x="621.38" y="486" width="280" height="90" as="geometry">
            <mxRectangle x="620" y="600" width="50" height="40" as="alternateBounds" />
          </mxGeometry>
        </mxCell>
        <mxCell id="nvfyEzK4BFwzWhvPfm2Y-59" value="checkAvailablity(&lt;b&gt;&lt;font color=&quot;#4c0099&quot;&gt;IntentionDTO&lt;/font&gt;&lt;/b&gt;,&lt;b style=&quot;text-align: left;&quot;&gt;&lt;font color=&quot;#0000ff&quot;&gt;SlotsDTO&lt;/font&gt;&lt;/b&gt;)&amp;nbsp;" style="rounded=0;whiteSpace=wrap;html=1;" parent="nvfyEzK4BFwzWhvPfm2Y-58" vertex="1">
          <mxGeometry x="10" y="40" width="250" height="30" as="geometry" />
        </mxCell>
        <mxCell id="nvfyEzK4BFwzWhvPfm2Y-60" value="&lt;b&gt;&lt;font color=&quot;#cc6600&quot;&gt;AvailablityCheckRequest&lt;/font&gt;&lt;/b&gt;&lt;div style=&quot;&quot;&gt;- userQuery&lt;/div&gt;&lt;div style=&quot;&quot;&gt;&lt;b style=&quot;text-align: center;&quot;&gt;&lt;font color=&quot;#4c0099&quot;&gt;- IntentionDTO&lt;/font&gt;&lt;/b&gt;&lt;/div&gt;&lt;div style=&quot;&quot;&gt;-&amp;nbsp;&lt;b style=&quot;background-color: initial;&quot;&gt;&lt;font color=&quot;#0000ff&quot;&gt;SlotsDTO&lt;/font&gt;&lt;/b&gt;&lt;/div&gt;" style="rounded=0;whiteSpace=wrap;html=1;align=left;" parent="nvfyEzK4BFwzWhvPfm2Y-109" vertex="1">
          <mxGeometry x="161.38" y="628.5" width="154" height="60" as="geometry" />
        </mxCell>
        <mxCell id="nvfyEzK4BFwzWhvPfm2Y-61" value="&lt;div style=&quot;&quot;&gt;&lt;b style=&quot;&quot;&gt;&lt;font color=&quot;#cc0000&quot;&gt;SlotsRequest&lt;/font&gt;&lt;/b&gt;&lt;/div&gt;&lt;div style=&quot;&quot;&gt;- userQuery&lt;/div&gt;&lt;div style=&quot;&quot;&gt;&lt;b style=&quot;text-align: center;&quot;&gt;&lt;font color=&quot;#4c0099&quot;&gt;- IntentionDTO&lt;/font&gt;&lt;/b&gt;&lt;/div&gt;&lt;div style=&quot;&quot;&gt;-&amp;nbsp;&lt;b style=&quot;background-color: initial;&quot;&gt;&lt;font color=&quot;#0000ff&quot;&gt;SlotsDTO&lt;/font&gt;&lt;/b&gt;&lt;/div&gt;" style="rounded=0;whiteSpace=wrap;html=1;align=left;" parent="nvfyEzK4BFwzWhvPfm2Y-109" vertex="1">
          <mxGeometry x="325.38" y="628.5" width="154" height="60" as="geometry" />
        </mxCell>
        <mxCell id="nvfyEzK4BFwzWhvPfm2Y-62" value="(I) SlotsFinder" style="swimlane;startSize=20;fontStyle=1;fillColor=#009900;" parent="nvfyEzK4BFwzWhvPfm2Y-109" vertex="1">
          <mxGeometry x="621.38" y="670" width="220" height="90" as="geometry">
            <mxRectangle x="490" y="890" width="50" height="40" as="alternateBounds" />
          </mxGeometry>
        </mxCell>
        <mxCell id="nvfyEzK4BFwzWhvPfm2Y-63" value="getSlots(&lt;b&gt;&lt;font color=&quot;#4c0099&quot;&gt;IntentionDTO&lt;/font&gt;&lt;/b&gt;,&lt;b style=&quot;text-align: left;&quot;&gt;&lt;font color=&quot;#0000ff&quot;&gt;SlotsDTO&lt;/font&gt;&lt;/b&gt;)" style="rounded=0;whiteSpace=wrap;html=1;" parent="nvfyEzK4BFwzWhvPfm2Y-62" vertex="1">
          <mxGeometry x="10" y="40" width="190" height="30" as="geometry" />
        </mxCell>
        <mxCell id="nvfyEzK4BFwzWhvPfm2Y-64" value="" style="endArrow=classic;html=1;rounded=0;exitX=0;exitY=0.25;exitDx=0;exitDy=0;entryX=1;entryY=0.75;entryDx=0;entryDy=0;" parent="nvfyEzK4BFwzWhvPfm2Y-109" source="nvfyEzK4BFwzWhvPfm2Y-59" target="nvfyEzK4BFwzWhvPfm2Y-45" edge="1">
          <mxGeometry width="50" height="50" relative="1" as="geometry">
            <mxPoint x="657.38" y="425" as="sourcePoint" />
            <mxPoint x="502.38" y="390" as="targetPoint" />
          </mxGeometry>
        </mxCell>
        <mxCell id="nvfyEzK4BFwzWhvPfm2Y-65" value="&lt;span style=&quot;font-size: 12px; text-align: left; text-wrap-mode: wrap; background-color: rgb(251, 251, 251);&quot;&gt;(3) response string&lt;/span&gt;" style="edgeLabel;html=1;align=center;verticalAlign=middle;resizable=0;points=[];" parent="nvfyEzK4BFwzWhvPfm2Y-64" vertex="1" connectable="0">
          <mxGeometry x="-0.1946" y="4" relative="1" as="geometry">
            <mxPoint as="offset" />
          </mxGeometry>
        </mxCell>
        <mxCell id="nvfyEzK4BFwzWhvPfm2Y-66" value="" style="endArrow=classic;html=1;rounded=0;exitX=0;exitY=0.25;exitDx=0;exitDy=0;entryX=0.92;entryY=0.964;entryDx=0;entryDy=0;entryPerimeter=0;" parent="nvfyEzK4BFwzWhvPfm2Y-109" source="nvfyEzK4BFwzWhvPfm2Y-63" target="nvfyEzK4BFwzWhvPfm2Y-45" edge="1">
          <mxGeometry width="50" height="50" relative="1" as="geometry">
            <mxPoint x="646.38" y="540" as="sourcePoint" />
            <mxPoint x="454.38" y="391" as="targetPoint" />
          </mxGeometry>
        </mxCell>
        <mxCell id="nvfyEzK4BFwzWhvPfm2Y-67" value="&lt;span style=&quot;font-size: 12px; text-align: left; text-wrap-mode: wrap; background-color: rgb(251, 251, 251);&quot;&gt;(3) response string&lt;/span&gt;" style="edgeLabel;html=1;align=center;verticalAlign=middle;resizable=0;points=[];" parent="nvfyEzK4BFwzWhvPfm2Y-66" vertex="1" connectable="0">
          <mxGeometry x="-0.1946" y="4" relative="1" as="geometry">
            <mxPoint as="offset" />
          </mxGeometry>
        </mxCell>
        <mxCell id="nvfyEzK4BFwzWhvPfm2Y-68" value="" style="endArrow=classic;html=1;rounded=0;exitX=0;exitY=0.5;exitDx=0;exitDy=0;entryX=0.988;entryY=0.439;entryDx=0;entryDy=0;entryPerimeter=0;" parent="nvfyEzK4BFwzWhvPfm2Y-109" source="nvfyEzK4BFwzWhvPfm2Y-45" target="nvfyEzK4BFwzWhvPfm2Y-34" edge="1">
          <mxGeometry width="50" height="50" relative="1" as="geometry">
            <mxPoint x="641.38" y="538" as="sourcePoint" />
            <mxPoint x="516.38" y="389" as="targetPoint" />
          </mxGeometry>
        </mxCell>
        <mxCell id="nvfyEzK4BFwzWhvPfm2Y-69" value="&lt;span style=&quot;font-size: 12px; text-align: left; text-wrap-mode: wrap; background-color: rgb(251, 251, 251);&quot;&gt;response string&lt;/span&gt;" style="edgeLabel;html=1;align=center;verticalAlign=middle;resizable=0;points=[];" parent="nvfyEzK4BFwzWhvPfm2Y-68" vertex="1" connectable="0">
          <mxGeometry x="-0.1946" y="4" relative="1" as="geometry">
            <mxPoint as="offset" />
          </mxGeometry>
        </mxCell>
        <mxCell id="nvfyEzK4BFwzWhvPfm2Y-71" value="" style="endArrow=classic;html=1;rounded=0;exitX=0.045;exitY=0.633;exitDx=0;exitDy=0;exitPerimeter=0;" parent="nvfyEzK4BFwzWhvPfm2Y-109" source="nvfyEzK4BFwzWhvPfm2Y-34" edge="1">
          <mxGeometry width="50" height="50" relative="1" as="geometry">
            <mxPoint x="341.38" y="375" as="sourcePoint" />
            <mxPoint x="50.00068965517241" y="410" as="targetPoint" />
          </mxGeometry>
        </mxCell>
        <mxCell id="nvfyEzK4BFwzWhvPfm2Y-72" value="&lt;span style=&quot;font-size: 12px; text-align: left; text-wrap-mode: wrap; background-color: rgb(251, 251, 251);&quot;&gt;response string&lt;/span&gt;" style="edgeLabel;html=1;align=center;verticalAlign=middle;resizable=0;points=[];" parent="nvfyEzK4BFwzWhvPfm2Y-71" vertex="1" connectable="0">
          <mxGeometry x="-0.1946" y="4" relative="1" as="geometry">
            <mxPoint as="offset" />
          </mxGeometry>
        </mxCell>
        <mxCell id="nvfyEzK4BFwzWhvPfm2Y-93" value="OpenAINPLResolver" style="swimlane;startSize=20;fontStyle=1;fillColor=#009900;" parent="nvfyEzK4BFwzWhvPfm2Y-109" vertex="1">
          <mxGeometry x="711.38" y="195" width="200" height="45" as="geometry">
            <mxRectangle x="600" y="505" width="50" height="40" as="alternateBounds" />
          </mxGeometry>
        </mxCell>
        <mxCell id="nvfyEzK4BFwzWhvPfm2Y-95" value="" style="endArrow=block;html=1;rounded=0;strokeColor=#003333;exitX=0;exitY=0.5;exitDx=0;exitDy=0;endFill=0;edgeStyle=orthogonalEdgeStyle;" parent="nvfyEzK4BFwzWhvPfm2Y-109" source="nvfyEzK4BFwzWhvPfm2Y-93" edge="1">
          <mxGeometry width="50" height="50" relative="1" as="geometry">
            <mxPoint x="933.38" y="332" as="sourcePoint" />
            <mxPoint x="661.38" y="180" as="targetPoint" />
          </mxGeometry>
        </mxCell>
        <mxCell id="nvfyEzK4BFwzWhvPfm2Y-96" value="&lt;div style=&quot;text-align: left;&quot;&gt;&lt;br&gt;&lt;/div&gt;" style="edgeLabel;html=1;align=center;verticalAlign=middle;resizable=0;points=[];" parent="nvfyEzK4BFwzWhvPfm2Y-95" vertex="1" connectable="0">
          <mxGeometry x="-0.1946" y="4" relative="1" as="geometry">
            <mxPoint as="offset" />
          </mxGeometry>
        </mxCell>
        <mxCell id="nvfyEzK4BFwzWhvPfm2Y-97" value="GoogleCalendarScheduleProvider" style="swimlane;startSize=20;fontStyle=1" parent="nvfyEzK4BFwzWhvPfm2Y-109" vertex="1">
          <mxGeometry x="741.38" y="375" width="200" height="45" as="geometry">
            <mxRectangle x="620" y="600" width="50" height="40" as="alternateBounds" />
          </mxGeometry>
        </mxCell>
        <mxCell id="nvfyEzK4BFwzWhvPfm2Y-98" value="" style="endArrow=block;html=1;rounded=0;strokeColor=#003333;exitX=0;exitY=0.5;exitDx=0;exitDy=0;endFill=0;edgeStyle=orthogonalEdgeStyle;entryX=0.5;entryY=1;entryDx=0;entryDy=0;" parent="nvfyEzK4BFwzWhvPfm2Y-109" source="nvfyEzK4BFwzWhvPfm2Y-97" target="nvfyEzK4BFwzWhvPfm2Y-51" edge="1">
          <mxGeometry width="50" height="50" relative="1" as="geometry">
            <mxPoint x="721.38" y="228" as="sourcePoint" />
            <mxPoint x="631.38" y="350" as="targetPoint" />
          </mxGeometry>
        </mxCell>
        <mxCell id="nvfyEzK4BFwzWhvPfm2Y-99" value="&lt;div style=&quot;text-align: left;&quot;&gt;&lt;br&gt;&lt;/div&gt;" style="edgeLabel;html=1;align=center;verticalAlign=middle;resizable=0;points=[];" parent="nvfyEzK4BFwzWhvPfm2Y-98" vertex="1" connectable="0">
          <mxGeometry x="-0.1946" y="4" relative="1" as="geometry">
            <mxPoint as="offset" />
          </mxGeometry>
        </mxCell>
        <mxCell id="nvfyEzK4BFwzWhvPfm2Y-100" value="DummySheduleProvider" style="swimlane;startSize=20;fontStyle=1" parent="nvfyEzK4BFwzWhvPfm2Y-109" vertex="1">
          <mxGeometry x="731.38" y="430" width="200" height="45" as="geometry">
            <mxRectangle x="620" y="600" width="50" height="40" as="alternateBounds" />
          </mxGeometry>
        </mxCell>
        <mxCell id="nvfyEzK4BFwzWhvPfm2Y-101" value="" style="endArrow=block;html=1;rounded=0;strokeColor=#003333;exitX=0;exitY=0.5;exitDx=0;exitDy=0;endFill=0;edgeStyle=orthogonalEdgeStyle;entryX=0.25;entryY=1;entryDx=0;entryDy=0;" parent="nvfyEzK4BFwzWhvPfm2Y-109" source="nvfyEzK4BFwzWhvPfm2Y-100" target="nvfyEzK4BFwzWhvPfm2Y-51" edge="1">
          <mxGeometry width="50" height="50" relative="1" as="geometry">
            <mxPoint x="741.38" y="408" as="sourcePoint" />
            <mxPoint x="681.38" y="365" as="targetPoint" />
          </mxGeometry>
        </mxCell>
        <mxCell id="nvfyEzK4BFwzWhvPfm2Y-102" value="&lt;div style=&quot;text-align: left;&quot;&gt;&lt;br&gt;&lt;/div&gt;" style="edgeLabel;html=1;align=center;verticalAlign=middle;resizable=0;points=[];" parent="nvfyEzK4BFwzWhvPfm2Y-101" vertex="1" connectable="0">
          <mxGeometry x="-0.1946" y="4" relative="1" as="geometry">
            <mxPoint as="offset" />
          </mxGeometry>
        </mxCell>
        <mxCell id="nvfyEzK4BFwzWhvPfm2Y-103" value="OpenAIAvailabilityResolver" style="swimlane;startSize=20;fontStyle=1" parent="nvfyEzK4BFwzWhvPfm2Y-109" vertex="1">
          <mxGeometry x="756.38" y="591" width="200" height="45" as="geometry">
            <mxRectangle x="600" y="505" width="50" height="40" as="alternateBounds" />
          </mxGeometry>
        </mxCell>
        <mxCell id="nvfyEzK4BFwzWhvPfm2Y-104" value="" style="endArrow=block;html=1;rounded=0;strokeColor=#003333;exitX=0;exitY=0.5;exitDx=0;exitDy=0;endFill=0;edgeStyle=orthogonalEdgeStyle;entryX=0.25;entryY=1;entryDx=0;entryDy=0;" parent="nvfyEzK4BFwzWhvPfm2Y-109" source="nvfyEzK4BFwzWhvPfm2Y-103" target="nvfyEzK4BFwzWhvPfm2Y-58" edge="1">
          <mxGeometry width="50" height="50" relative="1" as="geometry">
            <mxPoint x="978.38" y="728" as="sourcePoint" />
            <mxPoint x="706.38" y="576" as="targetPoint" />
          </mxGeometry>
        </mxCell>
        <mxCell id="nvfyEzK4BFwzWhvPfm2Y-105" value="&lt;div style=&quot;text-align: left;&quot;&gt;&lt;br&gt;&lt;/div&gt;" style="edgeLabel;html=1;align=center;verticalAlign=middle;resizable=0;points=[];" parent="nvfyEzK4BFwzWhvPfm2Y-104" vertex="1" connectable="0">
          <mxGeometry x="-0.1946" y="4" relative="1" as="geometry">
            <mxPoint as="offset" />
          </mxGeometry>
        </mxCell>
        <mxCell id="nvfyEzK4BFwzWhvPfm2Y-106" value="OpenAISlotsFinder" style="swimlane;startSize=20;fontStyle=1" parent="nvfyEzK4BFwzWhvPfm2Y-109" vertex="1">
          <mxGeometry x="731.38" y="775" width="200" height="45" as="geometry">
            <mxRectangle x="600" y="505" width="50" height="40" as="alternateBounds" />
          </mxGeometry>
        </mxCell>
        <mxCell id="nvfyEzK4BFwzWhvPfm2Y-107" value="" style="endArrow=block;html=1;rounded=0;strokeColor=#003333;exitX=0;exitY=0.5;exitDx=0;exitDy=0;endFill=0;edgeStyle=orthogonalEdgeStyle;entryX=0.25;entryY=1;entryDx=0;entryDy=0;" parent="nvfyEzK4BFwzWhvPfm2Y-109" source="nvfyEzK4BFwzWhvPfm2Y-106" target="nvfyEzK4BFwzWhvPfm2Y-62" edge="1">
          <mxGeometry width="50" height="50" relative="1" as="geometry">
            <mxPoint x="953.38" y="912" as="sourcePoint" />
            <mxPoint x="681.38" y="760" as="targetPoint" />
          </mxGeometry>
        </mxCell>
        <mxCell id="nvfyEzK4BFwzWhvPfm2Y-108" value="&lt;div style=&quot;text-align: left;&quot;&gt;&lt;br&gt;&lt;/div&gt;" style="edgeLabel;html=1;align=center;verticalAlign=middle;resizable=0;points=[];" parent="nvfyEzK4BFwzWhvPfm2Y-107" vertex="1" connectable="0">
          <mxGeometry x="-0.1946" y="4" relative="1" as="geometry">
            <mxPoint as="offset" />
          </mxGeometry>
        </mxCell>
      </root>
    </mxGraphModel>
  </diagram>
</mxfile>
